# xmcd CD database file
#
# Track frame offsets:
#	150
#	12527
#	28822
#	43715
#	58095
#	76665
#	93330
#	115560
#	143517
#	165350
#	186387
#	199900
#	218540
#	236217
#
# Disc length: 3351 seconds
#
# Revision: 0
# Processed by: cddbd v1.4PL0 Copyright (c) Steve Scherf et al.
# Submitted via: CDex 1.40Release
#
DISCID=b60d150e
DTITLE=Geoff Muldaur - Password (Japanese Edition)
DYEAR=2000
DGENRE=Blues
TTITLE0=Kitchen Door Blues
TTITLE1=Drop Down Mama
TTITLE2=At The Christmas Ball
TTITLE3=Wait 'til I Put On My Robe
TTITLE4=Some Of These Days (I'll Be Gone)
TTITLE5=Mary Of The Wild Moors
TTITLE6=Trouble Soon Be Over
TTITLE7=Light Rain
TTITLE8=Prairie Lullaby
TTITLE9=K.C. Moan
TTITLE10=Beautiful Isle Of Somewhere
TTITLE11=Got To Blind Lemon - Part Two
TTITLE12=My Tears Came Rollin' Down (Bonus Track)
TTITLE13=Motherless Child (Bonus Track)
EXTD=YEAR: 2000 ID3G: 0
EXTT0=
EXTT1=
EXTT2=
EXTT3=
EXTT4=
EXTT5=
EXTT6=
EXTT7=
EXTT8=
EXTT9=
EXTT10=
EXTT11=
EXTT12=
EXTT13=
PLAYORDER=
